PathFileType	4	(X/Y/Z)	C:/Users/beibeiliu/ov580/test_trc/User3\out6_training_dense_left.trc
DataRate	CameraRate	NumFrames	NumMarkers	Units	OrigDataRate	OrigDataStartFrame	OrigNumFrames
120	120	9	19	mm	120	188	500
Frame#	Time	ThumbCMC			ThumbMCP			ThumbIP			ThumbTip			IndexMCP			IndexPIP			IndexTip			MiddleMCP			MiddlePIP			MiddleTip			RingMCP			RingPIP			RingTip			PinkyMCP			PinkyPIP			PinkyTip			BackHand1			BackHand2			BackHand3	
		X0	Y0	Z0	X1	Y1	Z1	X2	Y2	Z2	X3	Y3	Z3	X4	Y4	Z4	X5	Y5	Z5	X6	Y6	Z6	X7	Y7	Z7	X8	Y8	Z8	X9	Y9	Z9	X10	Y10	Z10	X11	Y11	Z11	X12	Y12	Z12	X13	Y13	Z13	X14	Y14	Z14	X15	Y15	Z15	X16	Y16	Z16	X17	Y17	Z17	X18	Y18	Z18	
187	1.55833	-179.137	23.5625	30.9038	-174.27	16.6514	-1.93271	-181.589	4.94873	-32.385	-199.899	-10.2456	-43.7655	-228.973	48.4477	-23.4119	-233.325	57.8128	-44.1916	-244.095	63.5379	-71.5429	-238.667	21.8908	-31.791	-226.771	-3.4307	-48.9737	-204.076	-14.1029	-20.3329	-237.371	-2.80507	-20.5506	-216.24	-24.0897	-22.1396	-203.331	-19.571	7.15223	-244.167	-21.3655	-4.68605	-219.031	-33.748	-3.05252	-210.414	-20.2516	23.1369	-241.467	19.5997	33.5373	-231.878	12.8729	64.0291	-215.686	36.2631	41.373	
188	1.56667	-172.727	25.5228	30.432	-167.071	17.9849	-4.59375	-175.932	6.23474	-32.8908	-195.223	-10.8912	-42.0878	-221.824	49.1599	-22.8157	-227.036	57.7313	-46.9175	-236.172	57.8241	-74.9481	-234.701	20.1255	-27.9549	-218.06	-1.11922	-50.1238	-194.408	-12.2127	-15.8849	-233.655	-4.86546	-19.8402	-211.361	-26.4587	-21.1127	-197.65	-16.0733	8.44283	-235.595	-19.6151	-7.71082	-214.53	-34.1129	-4.37622	-206.394	-23.5989	22.6761	-241.706	17.9263	34.0424	-225.623	14.0727	66.4259	-211.125	37.7225	39.909	
189	1.575	-166.282	25.7363	30.9849	-163.229	17.9996	-0.716294	-165.885	6.99166	-30.2898	-185.519	-9.92587	-44.366	-211.303	48.8698	-21.8215	-218.332	53.4834	-52.9485	-217.447	44.5874	-79.9938	-225.07	22.3303	-30.0169	-211.767	-1.87231	-50.1382	-190.232	-14.3686	-16.945	-224.336	-1.05918	-22.5602	-204.367	-27.0616	-20.7853	-190.846	-15.8766	8.83725	-230.774	-18.911	-8.62923	-208.184	-30.5422	-6.90001	-199.158	-20.7387	21.683	-230.354	21.4127	36.9329	-220.648	15.8853	66.7812	-200.257	37.8461	40.9042	
190	1.58333	-157.243	26.971	31.5855	-153.685	18.8897	-2.65617	-160.105	8.33934	-30.911	-176.351	-6.42373	-44.2553	-202.006	42.6263	-26.0412	-205.902	36.6233	-57.0626	-192.245	15.1714	-79.0705	-216.253	22.0382	-32.5698	-198.978	-2.52647	-50.7632	-183.568	-15.418	-17.8409	-221.776	-2.43142	-19.3895	-199.524	-23.4893	-25.7963	-187.434	-19.5485	7.12658	-226.275	-14.2069	-5.25909	-202.719	-30.778	-8.29069	-192.229	-21.1979	21.0556	-226.643	19.2723	31.2571	-217.103	16.4742	61.3349	-191.855	39.4474	42.6317	
191	1.59167	-154.217	26.452	31.6491	-145.372	20.767	2.25515	-151.446	11.3937	-25.8777	-169.963	-2.76226	-41.3105	-190.346	36.1357	-32.3559	-185.013	21.6192	-61.2644	-171.282	-4.31172	-67.9485	-208.018	23.0374	-33.7336	-196.225	-2.10481	-51.6025	-175.773	-14.201	-16.4582	-211.199	2.79796	-25.3641	-195.185	-23.7638	-26.5752	-182.111	-19.4984	3.65137	-217.709	-11.0212	-8.40168	-199.214	-30.6542	-11.672	-187.71	-19.7962	16.9099	-219.837	23.2867	30.9004	-211.22	20.2367	59.5029	-188.399	38.2171	42.0123	
192	1.6	-143.397	27.9559	32.8251	-138.782	22.4185	-0.829705	-148.403	12.5509	-27.7469	-162.678	-2.59832	-46.3536	-179.893	35.6542	-36.3961	-174.944	18.3748	-57.7759	-155.289	-7.56012	-66.5082	-201.222	25.8842	-32.4598	-190.122	0.321964	-51.5755	-170.225	-13.5408	-20.44	-207.049	2.39018	-24.5885	-188.707	-22.1575	-28.3805	-172.269	-14.9069	1.35027	-215.118	-12.2619	-8.5724	-194.19	-30.6797	-11.5874	-181.942	-22.8222	17.5835	-211.112	24.697	32.3835	-200.253	22.6966	62.2449	-179.92	40.986	40.3153	
193	1.60833	-137.532	30.6799	34.4034	-134.066	22.434	1.21879	-142.603	13.2449	-29.4174	-153.771	-0.114785	-46.3034	-174.73	40.455	-37.5567	-167.296	26.6538	-61.2675	-157.146	0.969834	-74.4249	-193.918	27.4171	-37.9849	-182.79	3.69237	-53.3272	-164.47	-10.6978	-20.7768	-200.06	2.68821	-26.2517	-179.654	-19.1638	-27.7951	-167.413	-16.1033	1.01138	-205.456	-7.0079	-8.86092	-184.689	-28.3051	-10.3351	-175.033	-16.5878	20.7441	-207.54	25.517	27.9355	-200.568	22.9642	61.348	-173.933	44.1214	38.6249	
194	1.61667	-135.91	31.0036	30.5632	-126.65	24.4038	-0.886122	-132.698	12.9708	-26.2607	-150.351	-0.589045	-42.3722	-172.032	45.8652	-35.243	-166.398	37.2401	-65.4534	-157.865	22.8287	-82.9277	-186.629	30.2335	-37.2916	-172.267	3.93883	-53.7183	-157.371	-9.15525	-22.4081	-192.675	5.68769	-24.0747	-173.215	-18.0873	-27.9038	-158.861	-9.88292	5.30983	-198.413	-8.4149	-10.2537	-173.154	-23.582	-7.48183	-167.454	-11.98	20.0133	-201.676	26.6469	29.3383	-192.477	22.5337	59.3023	-170.856	44.1325	40.6529	
195	1.625	-128.755	31.1692	33.7709	-120.075	23.4313	2.35082	-125.114	13.3591	-28.7453	-137.619	-2.51008	-42.7103	-164.434	51.666	-32.1481	-163.911	48.3472	-65.4533	-158.284	38.4764	-87.856	-179.575	30.1397	-39.8954	-167.048	5.82706	-55.6731	-147.395	-6.07971	-18.8581	-185.067	3.86817	-24.6667	-164.857	-18.9359	-26.0261	-152.992	-11.9416	5.36314	-188.159	-8.89562	-12.701	-166.563	-22.4818	-9.41638	-161.16	-7.82642	19.5371	-196.018	29.6574	25.7329	-188.302	25.9948	54.2477	-167.172	46.8818	34.7311	
